<?xml version="1.0" encoding="UTF-8"?>
<svg width="512px" height="512px" viewBox="0 0 512 512" version="1.1" xmlns="http://www.w3.org/2000/svg" xmlns:xlink="http://www.w3.org/1999/xlink">
    <!-- Generator: Sketch 52.6 (67491) - http://www.bohemiancoding.com/sketch -->
    <title>safari-pinned-tab</title>
    <desc>Created with Sketch.</desc>
    <defs>
        <linearGradient x1="71.2010666%" y1="95.2927651%" x2="30.537322%" y2="9.00893751%" id="linearGradient-1">
            <stop stop-color="#474747" offset="0%"></stop>
            <stop stop-color="#696969" offset="100%"></stop>
        </linearGradient>
        <path d="M471.367214,311.273985 L431.801558,288.459555 C435.795275,266.943507 435.795275,244.87101 431.801558,223.354962 L471.367214,200.540532 C475.918193,197.943768 477.96149,192.564756 476.475456,187.55671 C466.166095,154.540706 448.612318,124.677916 425.671668,99.8231708 C422.142337,96.0207659 416.383955,95.09335 411.925853,97.6901144 L372.360197,120.504544 C355.735192,106.22234 336.602503,95.1860916 315.890904,87.952248 L315.890904,42.4161297 C315.890904,37.222601 312.268696,32.6782633 307.160454,31.5653643 C273.074549,23.9605543 238.152749,24.3315207 205.738632,31.5653643 C200.63039,32.6782633 197.008182,37.222601 197.008182,42.4161297 L197.008182,88.0449896 C176.38946,95.3715748 157.256772,106.407823 140.538889,120.597286 L101.066111,97.782856 C96.5151315,95.1860916 90.8496267,96.0207659 87.3202959,99.9159124 C64.3796457,124.677916 46.8258688,154.540706 36.5165078,187.649452 C34.9375966,192.657497 37.0737705,198.036509 41.6247497,200.633274 L81.1904056,223.447704 C77.1966892,244.963751 77.1966892,267.036249 81.1904056,288.552296 L41.6247497,311.366726 C37.0737705,313.963491 35.0304737,319.342503 36.5165078,324.350548 C46.8258688,357.366552 64.3796457,387.229343 87.3202959,412.084088 C90.8496267,415.886493 96.6080086,416.813908 101.066111,414.217144 L140.631767,391.402714 C157.256772,405.684918 176.38946,416.721167 197.101059,423.95501 L197.101059,469.58387 C197.101059,474.777399 200.723267,479.321737 205.831509,480.434636 C239.917415,488.039446 274.839214,487.668479 307.253331,480.434636 C312.361573,479.321737 315.983781,474.777399 315.983781,469.58387 L315.983781,423.95501 C336.602503,416.628425 355.735192,405.592177 372.453074,391.402714 L412.01873,414.217144 C416.569709,416.813908 422.235214,415.979234 425.764545,412.084088 C448.705195,387.322084 466.258972,357.459294 476.568333,324.350548 C477.96149,319.249761 475.918193,313.870749 471.367214,311.273985 Z M256.449543,330.100526 C215.49073,330.100526 182.147842,296.806297 182.147842,255.907258 C182.147842,215.008219 215.49073,181.71399 256.449543,181.71399 C297.408356,181.71399 330.751244,215.008219 330.751244,255.907258 C330.751244,296.806297 297.408356,330.100526 256.449543,330.100526 Z" id="path-2"></path>
        <filter x="-0.8%" y="-0.8%" width="103.2%" height="102.4%" filterUnits="objectBoundingBox" id="filter-3">
            <feOffset dx="7" dy="4" in="SourceAlpha" result="shadowOffsetOuter1"></feOffset>
            <feColorMatrix values="0 0 0 0 0.212771046   0 0 0 0 0.212771046   0 0 0 0 0.212771046  0 0 0 1 0" type="matrix" in="shadowOffsetOuter1"></feColorMatrix>
        </filter>
        <filter x="-0.3%" y="-0.3%" width="102.3%" height="101.5%" filterUnits="objectBoundingBox" id="filter-4">
            <feOffset dx="3" dy="3" in="SourceAlpha" result="shadowOffsetInner1"></feOffset>
            <feComposite in="shadowOffsetInner1" in2="SourceAlpha" operator="arithmetic" k2="-1" k3="1" result="shadowInnerInner1"></feComposite>
            <feColorMatrix values="0 0 0 0 1   0 0 0 0 1   0 0 0 0 1  0 0 0 0.144219882 0" type="matrix" in="shadowInnerInner1"></feColorMatrix>
        </filter>
    </defs>
    <g id="safari-pinned-tab" stroke="none" stroke-width="1" fill="none" fill-rule="evenodd">
        <g id="Cog" fill-rule="nonzero">
            <g id="Shape">
                <use fill="black" fill-opacity="1" filter="url(#filter-3)" xlink:href="#path-2"></use>
                <use fill="url(#linearGradient-1)" xlink:href="#path-2"></use>
                <use fill="black" fill-opacity="1" filter="url(#filter-4)" xlink:href="#path-2"></use>
            </g>
            <rect id="Rectangle" x="0" y="0" width="512" height="512"></rect>
        </g>
    </g>
</svg>